<svg width="17" height="18" viewBox="0 0 17 18" fill="none" xmlns="http://www.w3.org/2000/svg">
<g id="Vector" filter="url(#filter0_i_88_143)">
<path d="M1.24002 4.99877L8.20074 8.99918M8.20074 8.99918L15.1615 4.99877M8.20074 8.99918V17M15.4015 5.79885C15.4012 5.51824 15.3271 5.24264 15.1867 4.9997C15.0463 4.75676 14.8444 4.55501 14.6014 4.41471L9.00082 1.21438C8.75756 1.07394 8.48163 1 8.20074 1C7.91985 1 7.64391 1.07394 7.40066 1.21438L1.80008 4.41471C1.55707 4.55501 1.35522 4.75676 1.21479 4.9997C1.07436 5.24264 1.00029 5.51824 1 5.79885V12.1995C1.00029 12.4801 1.07436 12.7557 1.21479 12.9987C1.35522 13.2416 1.55707 13.4433 1.80008 13.5836L7.40066 16.784C7.64391 16.9244 7.91985 16.9984 8.20074 16.9984C8.48163 16.9984 8.75756 16.9244 9.00082 16.784L14.6014 13.5836C14.8444 13.4433 15.0463 13.2416 15.1867 12.9987C15.3271 12.7557 15.4012 12.4801 15.4015 12.1995V5.79885Z" stroke="#9D9D9D" stroke-width="2" stroke-linecap="round" stroke-linejoin="round"/>
</g>
<defs>
<filter id="filter0_i_88_143" x="0" y="-3" width="16.4015" height="21" filterUnits="userSpaceOnUse" color-interpolation-filters="sRGB">
<feFlood flood-opacity="0" result="BackgroundImageFix"/>
<feBlend mode="normal" in="SourceGraphic" in2="BackgroundImageFix" result="shape"/>
<feColorMatrix in="SourceAlpha" type="matrix" values="0 0 0 0 0 0 0 0 0 0 0 0 0 0 0 0 0 0 127 0" result="hardAlpha"/>
<feOffset dy="-3"/>
<feGaussianBlur stdDeviation="2"/>
<feComposite in2="hardAlpha" operator="arithmetic" k2="-1" k3="1"/>
<feColorMatrix type="matrix" values="0 0 0 0 0 0 0 0 0 0 0 0 0 0 0 0 0 0 0.25 0"/>
<feBlend mode="normal" in2="shape" result="effect1_innerShadow_88_143"/>
</filter>
</defs>
</svg>
