<svg width="17" height="18" viewBox="0 0 17 18" fill="none" xmlns="http://www.w3.org/2000/svg">
<g id="Vector" filter="url(#filter0_i_86_126)">
<path d="M15.4 3.4C15.4 4.72548 12.1764 5.8 8.2 5.8C4.22355 5.8 1 4.72548 1 3.4M15.4 3.4C15.4 2.07452 12.1764 1 8.2 1C4.22355 1 1 2.07452 1 3.4M15.4 3.4V14.6C15.4 15.2365 14.6414 15.847 13.2912 16.2971C11.9409 16.7471 10.1096 17 8.2 17C6.29044 17 4.45909 16.7471 3.10883 16.2971C1.75857 15.847 1 15.2365 1 14.6V3.4M1 9C1 9.63652 1.75857 10.247 3.10883 10.6971C4.45909 11.1471 6.29044 11.4 8.2 11.4C10.1096 11.4 11.9409 11.1471 13.2912 10.6971C14.6414 10.247 15.4 9.63652 15.4 9" stroke="white" stroke-width="2" stroke-linecap="round" stroke-linejoin="round"/>
</g>
<defs>
<filter id="filter0_i_86_126" x="0" y="-3" width="16.4" height="21" filterUnits="userSpaceOnUse" color-interpolation-filters="sRGB">
<feFlood flood-opacity="0" result="BackgroundImageFix"/>
<feBlend mode="normal" in="SourceGraphic" in2="BackgroundImageFix" result="shape"/>
<feColorMatrix in="SourceAlpha" type="matrix" values="0 0 0 0 0 0 0 0 0 0 0 0 0 0 0 0 0 0 127 0" result="hardAlpha"/>
<feOffset dy="-3"/>
<feGaussianBlur stdDeviation="2"/>
<feComposite in2="hardAlpha" operator="arithmetic" k2="-1" k3="1"/>
<feColorMatrix type="matrix" values="0 0 0 0 0 0 0 0 0 0 0 0 0 0 0 0 0 0 0.25 0"/>
<feBlend mode="normal" in2="shape" result="effect1_innerShadow_86_126"/>
</filter>
</defs>
</svg>
